<?xml version="1.0" standalone="no"?>
<!DOCTYPE svg PUBLIC "-//W3C//DTD SVG 20010904//EN"
 "http://www.w3.org/TR/2001/REC-SVG-20010904/DTD/svg10.dtd">
<svg version="1.0" xmlns="http://www.w3.org/2000/svg"
 width="800.000000pt" height="800.000000pt" viewBox="0 0 800.000000 800.000000"
 preserveAspectRatio="xMidYMid meet">
<metadata>
Created by potrace 1.14, written by Peter Selinger 2001-2017
</metadata>
<g transform="translate(0.000000,800.000000) scale(0.100000,-0.100000)"
fill="#000000" stroke="none">
<path d="M2810 6854 c-196 -53 -362 -217 -500 -494 -116 -232 -168 -501 -157
-800 10 -252 49 -431 132 -609 57 -119 114 -199 203 -283 83 -78 121 -101 264
-163 162 -69 211 -78 358 -72 336 14 656 188 778 424 72 140 87 205 86 383 -1
182 -15 255 -99 509 -62 184 -112 296 -217 480 -139 244 -227 364 -342 467
-169 151 -336 203 -506 158z m216 -119 c27 -8 57 -20 67 -27 15 -11 5 -13 -60
-14 -95 -1 -155 -21 -246 -81 -142 -94 -304 -331 -381 -557 -97 -281 -110
-587 -40 -956 12 -63 -30 67 -51 159 -35 153 -49 361 -35 519 25 280 94 486
233 692 153 227 332 319 513 265z"/>
<path d="M4910 6863 c-99 -19 -272 -139 -380 -265 -134 -158 -329 -487 -409
-693 -132 -337 -149 -678 -46 -910 58 -133 190 -275 328 -353 153 -88 365
-169 508 -197 327 -62 582 52 749 334 114 192 170 435 170 733 0 243 -29 405
-111 631 -140 383 -345 638 -568 707 -60 19 -174 25 -241 13z m245 -146 l50
-27 -40 6 c-100 14 -249 -42 -365 -139 -138 -114 -297 -341 -435 -622 -145
-294 -202 -541 -183 -790 4 -49 5 -91 3 -93 -2 -2 -14 27 -26 65 -31 95 -38
309 -15 443 34 193 107 372 270 658 92 162 149 243 234 334 81 86 144 132 230
169 59 26 76 29 147 26 63 -3 91 -9 130 -30z"/>
<path d="M1453 5145 c-79 -22 -127 -50 -187 -110 -68 -68 -136 -201 -173 -340
-24 -92 -27 -116 -27 -295 -1 -177 2 -205 26 -306 91 -381 322 -720 564 -825
27 -12 81 -36 119 -54 224 -103 430 -69 667 110 140 106 237 241 273 380 34
134 16 267 -67 486 -98 257 -250 455 -532 692 -195 163 -315 232 -459 261 -92
19 -135 19 -204 1z m169 -116 c62 -13 196 -72 138 -61 -75 15 -193 7 -243 -15
-70 -32 -148 -116 -191 -205 -102 -211 -122 -479 -60 -778 4 -20 3 -22 -5 -9
-6 9 -25 70 -43 135 -30 112 -31 129 -32 299 0 153 3 193 22 267 42 168 110
282 198 334 74 43 128 51 216 33z"/>
<path d="M6330 5149 c-191 -28 -410 -169 -686 -444 -239 -237 -358 -463 -371
-701 -10 -177 41 -326 161 -473 102 -125 223 -211 405 -289 160 -68 217 -83
316 -83 247 0 470 178 632 506 100 203 153 417 153 619 0 167 -18 257 -91 460
-56 152 -93 221 -155 286 -65 68 -128 105 -208 119 -66 12 -76 12 -156 0z
m198 -141 l47 -21 -81 -8 c-179 -17 -361 -121 -621 -357 -162 -147 -282 -303
-358 -466 -58 -123 -77 -208 -73 -323 2 -51 0 -89 -3 -85 -18 20 -41 116 -46
188 -16 233 119 486 393 739 256 236 389 323 538 355 60 13 151 3 204 -22z"/>
<path d="M3813 4505 c-275 -60 -652 -375 -1044 -875 -311 -396 -544 -757 -652
-1011 -85 -201 -115 -315 -123 -479 -14 -252 58 -442 229 -607 188 -183 449
-294 852 -365 112 -20 162 -23 365 -22 181 1 254 5 320 18 127 27 385 32 545
12 187 -24 579 -48 655 -41 93 9 240 42 339 77 330 116 536 329 596 616 30
138 15 358 -37 542 -43 156 -159 426 -239 557 -23 38 -50 86 -59 108 -49 112
-324 531 -467 710 -48 61 -142 165 -207 233 -212 218 -380 348 -571 442 -189
93 -343 119 -502 85z m182 -112 l48 -6 -84 -17 c-103 -22 -174 -52 -287 -126
-320 -208 -715 -643 -1079 -1186 -147 -219 -202 -313 -278 -471 -75 -158 -107
-248 -134 -384 -30 -145 -25 -308 14 -428 3 -11 -3 -4 -14 16 -11 19 -30 66
-43 105 -32 96 -32 288 0 417 65 260 226 564 497 936 245 338 421 547 636 756
228 222 427 353 579 381 82 15 87 15 145 7z"/>
</g>
</svg>
